<svg xmlns="http://www.w3.org/2000/svg" viewBox="0 0 9.25 7.41"><g><path d="M3 6a2.89 2.89 0 0 1-.26-1.25 2.52 2.52 0 0 1 .87-1.85 2.34 2.34 0 0 1 3.16.1 2 2 0 0 1 .11 2.94 1.7 1.7 0 0 1-2.4-.17 1.51 1.51 0 0 1-.39-1 1.37 1.37 0 0 1 .45-1 1.21 1.21 0 0 1 .9-.29 1.29 1.29 0 0 1 .86.42 1.18 1.18 0 0 1 .29.78 1 1 0 0 1-.35.74.84.84 0 0 1-.67.22 1 1 0 0 1-.64-.32.86.86 0 0 1-.2-.42.92.92 0 0 0 .23.5 1.05 1.05 0 0 0 1.49.12 1.23 1.23 0 0 0 .4-.89 1.55 1.55 0 0 0-.39-1A1.71 1.71 0 0 0 5.26 3 1.67 1.67 0 0 0 4 3.38a1.9 1.9 0 0 0-.62 1.4A2.37 2.37 0 0 0 4 6.36a2.66 2.66 0 0 0 1.79.89 2.55 2.55 0 0 0 2-.75c.52-.5 1.77-.31 1.38-.5a1 1 0 0 1-.51-1.4 1.7 1.7 0 0 1 .46-.76c.17-.19.1-.18-.12-.21-.45-.06-.54-.22-.71-.62v-.05a1.45 1.45 0 0 1 0-1.19c.1-.28-.51.36-1.2-.19L7 1.44a1.25 1.25 0 0 1-.51-.89c0-.08 0-.3-.08-.24s-.12.16-.19.23c-.34.4-.56.33-1 .27a1.12 1.12 0 0 1-1-.7C4-.32 4.27.63 3.58 1l-.48.2a.82.82 0 0 1-1-.16C2 .91 1.79.72 1.87 1c.25.88.1 1-.4 1.69A.82.82 0 0 1 .56 3C.25 3 1 3.44.93 4.1c0 .21-.05.4-.06.62-.06.86-.77.71-.86.83s.06.06.13.08a1.22 1.22 0 0 1 1 .9c0 .11.08.22.13.33C1.74 8.07 3.52 7.07 3 6z" fill="#FF9D00" fill-rule="evenodd"/></g></svg>
